<svg width="30" height="32" viewBox="0 0 30 32" fill="none" xmlns="http://www.w3.org/2000/svg">
<path fill-rule="evenodd" clip-rule="evenodd" d="M24.5 3.33335H26.0833C27.825 3.33335 29.25 4.75835 29.25 6.50002V28.6667C29.25 30.4084 27.825 31.8334 26.0833 31.8334H3.91667C2.15917 31.8334 0.75 30.4084 0.75 28.6667L0.765833 6.50002C0.765833 4.75835 2.15917 3.33335 3.91667 3.33335H5.5V1.75002C5.5 0.879187 6.2125 0.166687 7.08333 0.166687C7.95417 0.166687 8.66667 0.879187 8.66667 1.75002V3.33335H21.3333V1.75002C21.3333 0.879187 22.0458 0.166687 22.9167 0.166687C23.7875 0.166687 24.5 0.879187 24.5 1.75002V3.33335ZM24.5 28.6667C25.3708 28.6667 26.0833 27.9542 26.0833 27.0833V11.25H3.91666V27.0833C3.91666 27.9542 4.62916 28.6667 5.49999 28.6667H24.5ZM12.625 14.8125H17.375V19.5625H12.625V14.8125ZM17.375 21.9375H12.625V26.6875H17.375V21.9375ZM19.75 14.8125H24.5V19.5625H19.75V14.8125ZM24.5 21.9375H19.75V26.6875H24.5V21.9375ZM5.5 14.8125H10.25V19.5625H5.5V14.8125ZM10.25 21.9375H5.5V26.6875H10.25V21.9375Z" fill="white"/>
</svg>
